<svg width="512" height="512" xmlns="http://www.w3.org/2000/svg">

 <g>
  <title>background</title>
  <rect fill="none" id="canvas_background" height="402" width="582" y="-1" x="-1"/>
 </g>
 <g>
  <title>Layer 1</title>
  <path stroke="null" fill="#5f6267" clip-rule="evenodd" fill-rule="evenodd" id="svg_2" d="m255.999999,-0.046839c-141.398228,0 -256.048529,117.507986 -256.048529,262.56405c0,116.02199 73.385337,214.326336 175.118905,249.075779c12.802426,2.400455 17.489029,-5.715369 17.489029,-12.688119c0,-6.286906 -0.228615,-22.747168 -0.342922,-44.694185c-71.213497,15.888726 -86.302071,-35.206673 -86.302071,-35.206673c-11.659353,-30.291455 -28.462537,-38.407279 -28.462537,-38.407279c-23.204398,-16.345955 1.714611,-16.003033 1.714611,-16.003033c25.71916,1.828918 39.207431,27.090849 39.207431,27.090849c22.861476,40.12189 59.897067,28.576845 74.528411,21.832709c2.286148,-16.917492 8.915976,-28.576845 16.231648,-35.092365c-56.810767,-6.629828 -116.593527,-29.148382 -116.593527,-129.738875c0,-28.691152 9.944742,-52.124165 26.290697,-70.413346c-2.62907,-6.629828 -11.430738,-33.377755 2.514762,-69.498887c0,0 21.489787,-7.087058 70.413346,26.862234c20.461021,-5.829676 42.29373,-8.687361 64.12644,-8.801668c21.718402,0.114307 43.665419,2.971992 64.12644,8.801668c48.923558,-33.949292 70.299038,-26.862234 70.299038,-26.862234c13.9455,36.121132 5.143832,62.869059 2.514762,69.498887c16.345955,18.403488 26.290697,41.836501 26.290697,70.413346c0,100.819108 -59.897067,122.99474 -116.936449,129.510261c9.14459,8.115824 17.374722,24.118857 17.374722,48.580636c0,35.092365 -0.342922,63.440595 -0.342922,72.013649c0,6.97275 4.572295,15.202881 17.603336,12.573812c101.962182,-34.635136 175.233212,-132.939482 175.233212,-248.847164c0,-145.056064 -114.650301,-262.56405 -256.048529,-262.56405z" class="st0"/>
 </g>
</svg>